<svg width="24" height="22" viewBox="0 0 24 22" fill="none" xmlns="http://www.w3.org/2000/svg">
<path d="M21 5H15C14.4696 5 13.9609 5.21071 13.5858 5.58579C13.2107 5.96086 13 6.46957 13 7V3C13 2.46957 12.7893 1.96086 12.4142 1.58579C12.0391 1.21071 11.5304 1 11 1H3C2.46957 1 1.96086 1.21071 1.58579 1.58579C1.21071 1.96086 1 2.46957 1 3V19C1 19.5304 1.21071 20.0391 1.58579 20.4142C1.96086 20.7893 2.46957 21 3 21H21C21.5304 21 22.0391 20.7893 22.4142 20.4142C22.7893 20.0391 23 19.5304 23 19V7C23 6.46957 22.7893 5.96086 22.4142 5.58579C22.0391 5.21071 21.5304 5 21 5Z" stroke="#344054" stroke-width="2"/>
</svg>
