<svg width="24" height="24" viewBox="0 0 24 24" fill="none" xmlns="http://www.w3.org/2000/svg">
<path d="M21 6H15C14.4696 6 13.9609 6.21071 13.5858 6.58579C13.2107 6.96086 13 7.46957 13 8V4C13 3.46957 12.7893 2.96086 12.4142 2.58579C12.0391 2.21071 11.5304 2 11 2H3C2.46957 2 1.96086 2.21071 1.58579 2.58579C1.21071 2.96086 1 3.46957 1 4V20C1 20.5304 1.21071 21.0391 1.58579 21.4142C1.96086 21.7893 2.46957 22 3 22H21C21.5304 22 22.0391 21.7893 22.4142 21.4142C22.7893 21.0391 23 20.5304 23 20V8C23 7.46957 22.7893 6.96086 22.4142 6.58579C22.0391 6.21071 21.5304 6 21 6Z" stroke="#A9AEB8" stroke-width="2"/>
</svg>
