<svg width="27" height="27" viewBox="0 0 27 27" fill="none" xmlns="http://www.w3.org/2000/svg">
<mask id="path-1-outside-1_281_4712" maskUnits="userSpaceOnUse" x="9.1001" y="6" width="17" height="16" fill="black">
<rect fill="white" x="9.1001" y="6" width="17" height="16"/>
<path fill-rule="evenodd" clip-rule="evenodd" d="M11.1001 19.2107L12.1863 20.0797C13.0421 20.7644 14.2896 20.6327 14.9836 19.7844L24.1073 8.63327C24.457 8.20582 24.394 7.5758 23.9666 7.22607C23.5391 6.87635 22.9091 6.93935 22.5594 7.36679L13.4357 18.518L12.3667 17.6627L11.1001 19.2107Z"/>
</mask>
<path fill-rule="evenodd" clip-rule="evenodd" d="M11.1001 19.2107L12.1863 20.0797C13.0421 20.7644 14.2896 20.6327 14.9836 19.7844L24.1073 8.63327C24.457 8.20582 24.394 7.5758 23.9666 7.22607C23.5391 6.87635 22.9091 6.93935 22.5594 7.36679L13.4357 18.518L12.3667 17.6627L11.1001 19.2107Z" fill="#D9DCE3"/>
<path d="M12.1863 20.0797L11.5616 20.8606H11.5616L12.1863 20.0797ZM11.1001 19.2107L10.3261 18.5775L9.68591 19.36L10.4754 19.9916L11.1001 19.2107ZM14.9836 19.7844L15.7576 20.4177H15.7576L14.9836 19.7844ZM24.1073 8.63327L23.3333 8.00003L24.1073 8.63327ZM23.9666 7.22607L24.5998 6.45212L23.9666 7.22607ZM22.5594 7.36679L21.7854 6.73355V6.73355L22.5594 7.36679ZM13.4357 18.518L12.811 19.2988L13.5833 19.9167L14.2096 19.1512L13.4357 18.518ZM12.3667 17.6627L12.9913 16.8819L12.219 16.264L11.5927 17.0295L12.3667 17.6627ZM12.811 19.2988L11.7248 18.4299L10.4754 19.9916L11.5616 20.8606L12.811 19.2988ZM14.2096 19.1512C13.8626 19.5753 13.2389 19.6412 12.811 19.2988L11.5616 20.8606C12.8453 21.8876 14.7165 21.6901 15.7576 20.4177L14.2096 19.1512ZM23.3333 8.00003L14.2096 19.1512L15.7576 20.4177L24.8812 9.26651L23.3333 8.00003ZM23.3333 8.00003V8.00003L24.8812 9.26651C25.5807 8.41162 25.4547 7.15157 24.5998 6.45212L23.3333 8.00003ZM23.3333 8.00003V8.00003L24.5998 6.45212C23.7449 5.75266 22.4849 5.87866 21.7854 6.73355L23.3333 8.00003ZM14.2096 19.1512L23.3333 8.00003L21.7854 6.73355L12.6617 17.8847L14.2096 19.1512ZM11.742 18.4436L12.811 19.2988L14.0604 17.7371L12.9913 16.8819L11.742 18.4436ZM11.5927 17.0295L10.3261 18.5775L11.8741 19.844L13.1406 18.296L11.5927 17.0295Z" fill="#344054" mask="url(#path-1-outside-1_281_4712)"/>
<path d="M20.2251 8.6524C20.7788 7.97561 20.6791 6.97807 20.0023 6.42434C19.3255 5.8706 18.3279 5.97036 17.7742 6.64715L8.98537 17.3891L5.86631 15.0498C5.16675 14.5251 4.17431 14.6669 3.64964 15.3664C3.12497 16.066 3.26675 17.0584 3.96631 17.5831L7.46882 20.21C8.612 21.0674 10.2278 20.8713 11.1327 19.7653L20.2251 8.6524Z" fill="#D9DCE3" stroke="#344054" stroke-linecap="round"/>
</svg>
