<svg width="27" height="21" viewBox="0 0 27 21" fill="none" xmlns="http://www.w3.org/2000/svg">
<path d="M4.43934 13.726L4.09441 14.071L4.43934 13.726C4.25483 13.5415 4.13453 13.2825 4.06876 12.7933C4.00106 12.2897 4 11.6223 4 10.6654V7.83203C4 6.87509 4.00106 6.20768 4.06876 5.70411C4.13453 5.21493 4.25483 4.95588 4.43934 4.77137C4.62385 4.58686 4.8829 4.46656 5.37208 4.4008C5.87565 4.33309 6.54306 4.33203 7.5 4.33203H19.5C20.4569 4.33203 21.1244 4.33309 21.6279 4.4008C22.1171 4.46656 22.3762 4.58686 22.5607 4.77137C22.7452 4.95588 22.8655 5.21493 22.9312 5.70411C22.9989 6.20767 23 6.87507 23 7.83201V7.83203V11.332V12.9987C23 13.643 22.4777 14.1654 21.8333 14.1654H19.0556H7.5C6.54306 14.1654 5.87565 14.1643 5.37208 14.0966C4.8829 14.0308 4.62385 13.9105 4.43934 13.726Z" fill="#D9DCE3" stroke="#344054"/>
<ellipse cx="13.0957" cy="9.66536" rx="0.808081" ry="0.833333" stroke="#344054" stroke-width="1.5" stroke-linecap="round"/>
<ellipse cx="8.24753" cy="9.66536" rx="0.808081" ry="0.833333" stroke="#344054" stroke-width="1.5" stroke-linecap="round"/>
<ellipse cx="17.9443" cy="9.66536" rx="0.808081" ry="0.833333" stroke="#344054" stroke-width="1.5" stroke-linecap="round"/>
</svg>
