<svg width="27" height="21" viewBox="0 0 27 21" fill="none" xmlns="http://www.w3.org/2000/svg">
<path d="M4.43934 13.727L4.09441 14.0719L4.43934 13.727C4.25483 13.5425 4.13453 13.2834 4.06876 12.7943C4.00106 12.2907 4 11.6233 4 10.6663V7.83301C4 6.87606 4.00106 6.20865 4.06876 5.70509C4.13453 5.2159 4.25483 4.95686 4.43934 4.77235C4.62385 4.58784 4.8829 4.46754 5.37208 4.40177C5.87565 4.33407 6.54306 4.33301 7.5 4.33301H19.5C20.4569 4.33301 21.1244 4.33407 21.6279 4.40177C22.1171 4.46754 22.3762 4.58784 22.5607 4.77235C22.7452 4.95686 22.8655 5.2159 22.9312 5.70508C22.9989 6.20865 23 6.87605 23 7.83299V7.83301V11.333V12.9997C23 13.644 22.4777 14.1663 21.8333 14.1663H19.0556H7.5C6.54306 14.1663 5.87565 14.1653 5.37208 14.0976C4.8829 14.0318 4.62385 13.9115 4.43934 13.727Z" fill="#D9DCE3" stroke="#8C8C8C"/>
<ellipse cx="13.0957" cy="9.66634" rx="0.808081" ry="0.833333" stroke="#8C8C8C" stroke-width="1.5" stroke-linecap="round"/>
<ellipse cx="8.24753" cy="9.66634" rx="0.808081" ry="0.833333" stroke="#8C8C8C" stroke-width="1.5" stroke-linecap="round"/>
<ellipse cx="17.9443" cy="9.66634" rx="0.808081" ry="0.833333" stroke="#8C8C8C" stroke-width="1.5" stroke-linecap="round"/>
</svg>
