<svg width="35" height="27" viewBox="0 0 35 27" fill="none" xmlns="http://www.w3.org/2000/svg">
<path d="M10.983 15.309L10.983 15.309C10.9824 15.3095 10.9818 15.3101 10.9813 15.3106C10.9679 15.3231 10.9541 15.336 10.94 15.3491C10.778 15.5 10.573 15.691 10.4259 15.9369C10.2788 16.1827 10.2075 16.4537 10.1511 16.6678C10.146 16.6872 10.141 16.7062 10.1361 16.7246L9.4567 19.2723L10.4076 19.5259L9.4567 19.2723C9.45372 19.2835 9.45062 19.2951 9.44741 19.307C9.40827 19.453 9.35407 19.6552 9.33369 19.8346C9.31024 20.041 9.29645 20.4931 9.65982 20.8677C10.0232 21.2423 10.4756 21.2422 10.6825 21.2251C10.8624 21.2102 11.0662 21.1621 11.2133 21.1274C11.2254 21.1246 11.2371 21.1218 11.2483 21.1192L14.0818 20.4551L14.0818 20.4551C14.0829 20.4549 14.0839 20.4546 14.085 20.4544C14.1014 20.4505 14.1182 20.4466 14.1355 20.4427C14.3376 20.3959 14.5933 20.3368 14.8302 20.2099C15.0671 20.083 15.258 19.9029 15.409 19.7606C15.4227 19.7477 15.436 19.7351 15.4491 19.7229L22.8773 12.7589C22.8911 12.746 22.9049 12.733 22.9187 12.7201C23.2475 12.412 23.5647 12.1147 23.791 11.8353C24.045 11.5217 24.2876 11.1097 24.2876 10.5703C24.2876 10.031 24.045 9.61888 23.791 9.30531C23.5647 9.02595 23.2475 8.72864 22.9187 8.42052C22.9049 8.4076 22.8911 8.39466 22.8773 8.3817L22.6765 8.19348C22.6638 8.18161 22.6512 8.16974 22.6385 8.15789C22.3475 7.88492 22.0627 7.61784 21.7972 7.42712C21.4969 7.21132 21.1134 7.01136 20.6247 7.01136C20.136 7.01136 19.7525 7.21132 19.4521 7.42712C19.1866 7.61784 18.9019 7.88492 18.6108 8.15789C18.5982 8.16974 18.5855 8.18161 18.5729 8.19348L10.983 15.309Z" fill="#D9D9D9" stroke="#33363F" stroke-width="2"/>
<path d="M18.0205 9.10547L21.1455 7.15234L24.2705 10.082L22.1872 13.0117L18.0205 9.10547Z" fill="#33363F"/>
</svg>
