<svg width="27" height="27" viewBox="0 0 27 27" fill="none" xmlns="http://www.w3.org/2000/svg">
<path d="M13.5 5.625L12.7929 4.91789L13.5 4.21079L14.2071 4.91789L13.5 5.625ZM14.5 15.75C14.5 16.3023 14.0523 16.75 13.5 16.75C12.9477 16.75 12.5 16.3023 12.5 15.75L14.5 15.75ZM7.16789 10.5429L12.7929 4.91789L14.2071 6.33211L8.58211 11.9571L7.16789 10.5429ZM14.2071 4.91789L19.8321 10.5429L18.4179 11.9571L12.7929 6.33211L14.2071 4.91789ZM14.5 5.625L14.5 15.75L12.5 15.75L12.5 5.625L14.5 5.625Z" fill="#222222"/>
<path d="M5.625 18L5.625 19.125C5.625 20.3676 6.63236 21.375 7.875 21.375L19.125 21.375C20.3676 21.375 21.375 20.3676 21.375 19.125V18" stroke="#222222" stroke-width="2"/>
<rect x="5.625" y="16.875" width="15.75" height="4.5" rx="2" fill="#7E869E" fill-opacity="0.25"/>
</svg>
