<svg width="19" height="19" viewBox="0 0 19 19" fill="none" xmlns="http://www.w3.org/2000/svg">
<path d="M7.91634 14.2507C9.32153 14.2504 10.6862 13.78 11.7931 12.9143L15.2733 16.3945L16.3927 15.2751L12.9125 11.7949C13.7786 10.6879 14.2493 9.32287 14.2497 7.91732C14.2497 4.42528 11.4084 1.58398 7.91634 1.58398C4.4243 1.58398 1.58301 4.42528 1.58301 7.91732C1.58301 11.4094 4.4243 14.2507 7.91634 14.2507ZM7.91634 3.16732C10.536 3.16732 12.6663 5.29769 12.6663 7.91732C12.6663 10.5369 10.536 12.6673 7.91634 12.6673C5.29672 12.6673 3.16634 10.5369 3.16634 7.91732C3.16634 5.29769 5.29672 3.16732 7.91634 3.16732Z" fill="#A9AEB8"/>
</svg>
