<svg width="23" height="17" viewBox="0 0 23 17" fill="none" xmlns="http://www.w3.org/2000/svg">
<path d="M17.25 8.68397H18V7.93397V5.28421H18.8V7.93397V8.68397H19.55H22.25V9.45048H19.55H18.8V10.2005V12.8502H18V10.2005V9.45048H17.25H14.55V8.68397H17.25ZM3.04979 4.55194L3.05021 4.53421L3.04979 4.51649C3.03806 4.02038 3.12855 3.52684 3.31608 3.06559C3.50361 2.60432 3.78445 2.18457 4.1422 1.83202C4.49998 1.47945 4.92725 1.20146 5.39845 1.01542C5.86968 0.829383 6.37468 0.73934 6.88279 0.751004L6.9 0.7514L6.91721 0.751004C7.42532 0.73934 7.93032 0.829383 8.40155 1.01542C8.87275 1.20146 9.30002 1.47945 9.6578 1.83202L10.1842 1.29782L9.6578 1.83202C10.0156 2.18457 10.2964 2.60432 10.4839 3.06559C10.6714 3.52684 10.7619 4.02038 10.7502 4.51649L10.7498 4.53421L10.7502 4.55194C10.7619 5.04805 10.6714 5.54159 10.4839 6.00283C10.2964 6.46411 10.0156 6.88386 9.6578 7.23641C9.30002 7.58898 8.87275 7.86697 8.40155 8.05301C7.93032 8.23905 7.42532 8.32909 6.91721 8.31742L6.9 8.31703L6.88279 8.31742C6.37468 8.32909 5.86968 8.23905 5.39845 8.05301C4.92725 7.86697 4.49998 7.58898 4.1422 7.23641C3.78445 6.88386 3.50361 6.46411 3.31608 6.00284C3.12855 5.54159 3.03806 5.04805 3.04979 4.55194ZM4.71435 6.70348L5.24078 6.16928L4.71435 6.70348C5.00542 6.99031 5.35348 7.21334 5.73587 7.35886C6.1071 7.50014 6.50311 7.5655 6.9 7.55136C7.29689 7.5655 7.6929 7.50014 8.06413 7.35886C8.44651 7.21334 8.79458 6.99031 9.08565 6.70348C9.37675 6.41662 9.60441 6.07226 9.75336 5.69218C9.89785 5.32349 9.96501 4.92951 9.95067 4.53421C9.96501 4.13892 9.89785 3.74493 9.75336 3.37625C9.60441 2.99617 9.37675 2.65181 9.08565 2.36495C8.79458 2.07812 8.44651 1.85509 8.06413 1.70957C7.6929 1.56829 7.29689 1.50293 6.9 1.51707C6.50311 1.50293 6.1071 1.56829 5.73587 1.70957C5.35348 1.85509 5.00542 2.07812 4.71435 2.36495C4.42325 2.65181 4.19559 2.99617 4.04664 3.37625C3.90215 3.74493 3.83499 4.13892 3.84933 4.53421C3.83499 4.92951 3.90215 5.3235 4.04664 5.69218C4.19559 6.07226 4.42325 6.41662 4.71435 6.70348ZM2.78406 12.9285C1.99521 13.7059 1.55 14.7626 1.55 15.8667V16.25H0.75V15.8667C0.75 14.5665 1.27407 13.3172 2.21056 12.3943C3.14743 11.4711 4.4204 10.9505 5.75 10.9505H8.05C8.70812 10.9505 9.35955 11.0782 9.967 11.3262C10.5744 11.5741 11.1256 11.9372 11.5894 12.3943C12.0532 12.8513 12.4205 13.3933 12.6709 13.989C12.9213 14.5846 13.05 15.2227 13.05 15.8667V16.25H12.25V15.8667C12.25 14.7626 11.8048 13.7059 11.0159 12.9285C10.2275 12.1516 9.16039 11.717 8.05 11.717H5.75C4.63961 11.717 3.57253 12.1516 2.78406 12.9285Z" stroke="#A9AEB8" stroke-width="1.5"/>
</svg>
